<svg viewBox="0 0 25 25" fill="none" xmlns="http://www.w3.org/2000/svg">
<path d="M16.6589 17.053C15.3999 16.945 14.4101 15.5807 14.4101 13.9129C14.4101 13.8572 14.4109 13.8016 14.4134 13.7459V13.7535C14.4109 13.7012 14.4093 13.64 14.4093 13.5778C14.4093 11.9133 15.4008 10.5534 16.6522 10.454H16.6589C17.9162 10.5435 18.9093 11.9002 18.9093 13.5615C18.9093 13.6291 18.9077 13.6957 18.9043 13.7623V13.7535C18.9068 13.8081 18.9085 13.8725 18.9085 13.9369C18.9085 15.5992 17.9162 16.9581 16.6647 17.052H16.6581L16.6589 17.053ZM8.35527 17.053C7.09632 16.945 6.10648 15.5807 6.10648 13.9129C6.10648 13.8572 6.10732 13.8016 6.10981 13.7459V13.7535C6.10732 13.7012 6.10565 13.64 6.10565 13.5778C6.10565 11.9133 7.09715 10.5534 8.34861 10.454H8.35527C9.61256 10.5435 10.6057 11.9002 10.6057 13.5615C10.6057 13.6291 10.6041 13.6957 10.6007 13.7623V13.7535C10.6032 13.8059 10.6049 13.8671 10.6049 13.9293C10.6049 15.5938 9.6134 16.9537 8.36194 17.053H8.35527ZM21.159 2.10216C19.6901 1.19406 17.9837 0.475878 16.1973 0.0600304L16.0732 0.0360183C16.069 0.0349269 16.064 0.0338356 16.059 0.0338356C16.0298 0.0338356 16.0048 0.0545733 15.9915 0.0851343C15.7965 0.533726 15.5849 1.09365 15.3941 1.66776L15.3583 1.78891C14.5001 1.60882 13.5102 1.50622 12.5021 1.50622C11.4939 1.50622 10.5041 1.60882 9.53841 1.80637L9.64589 1.78782C9.42093 1.1002 9.20597 0.541367 8.9685 0L9.00267 0.0840429C8.9885 0.0523905 8.96267 0.0327437 8.93351 0.0327437C8.92934 0.0327437 8.92435 0.0327441 8.92018 0.0338356C7.00967 0.473696 5.30328 1.19079 3.70855 2.16983L3.83436 2.09998C3.8202 2.10762 3.80853 2.12072 3.80103 2.13709C1.4231 6.5477 0 12.0356 0 17.959C0 18.9489 0.0399934 19.9258 0.11748 20.8885L0.109982 20.7684C0.112481 20.8 0.124979 20.8262 0.142476 20.8448C1.92551 22.5922 3.9985 24.0002 6.23563 24.9247L6.38227 24.9771C6.38893 24.9804 6.39727 24.9814 6.4056 24.9814C6.43226 24.9814 6.45559 24.9651 6.46975 24.94C6.91551 24.1541 7.33961 23.2635 7.70705 22.3292L7.74621 22.22C7.75121 22.2069 7.75454 22.1906 7.75454 22.1731C7.75454 22.1284 7.73288 22.0912 7.70288 22.076H7.70205C6.94218 21.6918 6.29978 21.2825 5.68822 20.8131L5.75237 20.859C5.72821 20.8404 5.71238 20.8066 5.71238 20.7684C5.71238 20.7346 5.72488 20.704 5.74404 20.6854C5.87485 20.5566 6.0065 20.4235 6.13148 20.2881C6.14481 20.274 6.16231 20.2652 6.18064 20.2652C6.1923 20.2652 6.20313 20.2685 6.2123 20.274H6.21146C8.05116 21.432 10.2108 22.1087 12.4904 22.1087C14.77 22.1087 16.9305 21.432 18.8585 20.2238L18.7694 20.274C18.7794 20.2674 18.7902 20.2641 18.8027 20.2641C18.821 20.2641 18.8385 20.2729 18.8519 20.2871C18.9768 20.4224 19.1076 20.5577 19.2401 20.6854C19.2593 20.7051 19.2718 20.7356 19.2718 20.7695C19.2718 20.8077 19.256 20.8404 19.2335 20.859C18.6827 21.2901 18.0403 21.6983 17.3713 22.0356L17.2838 22.0749C17.2538 22.0902 17.2321 22.1284 17.2321 22.172C17.2321 22.1895 17.2355 22.2059 17.2413 22.22C17.6587 23.2678 18.082 24.1563 18.5502 25L18.5169 24.9378C18.5311 24.964 18.5552 24.9814 18.5811 24.9814C18.5894 24.9814 18.5977 24.9793 18.6052 24.9771C20.9923 24.0035 23.0687 22.5955 24.9083 20.7946L24.8542 20.8459C24.8725 20.8284 24.8842 20.8011 24.8867 20.7706C24.9592 19.9149 25 18.9216 25 17.9164C25 12.0061 23.5736 6.53242 21.1481 2.05305L21.1915 2.13818C21.1848 2.12072 21.1731 2.10653 21.1598 2.09889L21.159 2.10216Z" fill="#7E838C"/>
</svg>
