<svg  viewBox="0 0 20 20" fill="none" xmlns="http://www.w3.org/2000/svg">
<path d="M7.6251 9.38335H3.45843C3.03255 9.38118 2.62474 9.21101 2.32359 8.90985C2.02244 8.60876 1.85229 8.20091 1.8501 7.77503V3.60836C1.85229 3.18249 2.02244 2.77467 2.32359 2.47352C2.62474 2.17237 3.03255 2.00222 3.45843 2.00003H7.6251C8.05098 2.00222 8.45876 2.17237 8.75993 2.47352C9.0611 2.77467 9.23126 3.18249 9.23343 3.60836V7.77503C9.23126 8.20091 9.0611 8.60876 8.75993 8.90985C8.45876 9.21101 8.05098 9.38118 7.6251 9.38335ZM3.45843 3.25003C3.36406 3.25216 3.27415 3.29059 3.2074 3.35734C3.14066 3.42408 3.10222 3.514 3.1001 3.60836V7.77503C3.1001 7.87007 3.13785 7.96121 3.20506 8.02841C3.27226 8.09561 3.3634 8.13336 3.45843 8.13336H7.6251C7.72013 8.13336 7.81128 8.09561 7.87848 8.02841C7.94568 7.96121 7.98343 7.87007 7.98343 7.77503V3.60836C7.98343 3.51333 7.94568 3.42219 7.87848 3.35499C7.81128 3.28779 7.72013 3.25003 7.6251 3.25003H3.45843Z" fill="white"/>
<path d="M16.5416 9.38335H12.3749C11.9491 9.38118 11.5413 9.21101 11.2401 8.90985C10.9389 8.60876 10.7688 8.20091 10.7666 7.77503V3.60836C10.7688 3.18249 10.9389 2.77467 11.2401 2.47352C11.5413 2.17237 11.9491 2.00222 12.3749 2.00003H16.5416C16.9675 2.00222 17.3753 2.17237 17.6764 2.47352C17.9776 2.77467 18.1478 3.18249 18.1499 3.60836V7.77503C18.1478 8.20091 17.9776 8.60876 17.6764 8.90985C17.3753 9.21101 16.9675 9.38118 16.5416 9.38335ZM12.3749 3.25003C12.2799 3.25003 12.1888 3.28779 12.1216 3.35499C12.0544 3.42219 12.0166 3.51333 12.0166 3.60836V7.77503C12.0166 7.87007 12.0544 7.96121 12.1216 8.02841C12.1888 8.09561 12.2799 8.13336 12.3749 8.13336H16.5416C16.6367 8.13336 16.7278 8.09561 16.795 8.02841C16.8622 7.96121 16.8999 7.87007 16.8999 7.77503V3.60836C16.8999 3.51333 16.8622 3.42219 16.795 3.35499C16.7278 3.28779 16.6367 3.25003 16.5416 3.25003H12.3749Z" fill="white"/>
<path d="M7.6251 18.0001H3.45843C3.03255 17.9978 2.62474 17.8277 2.32359 17.5266C2.02244 17.2254 1.85229 16.8176 1.8501 16.3918V12.2251C1.85229 11.7992 2.02244 11.3913 2.32359 11.0902C2.62474 10.7891 3.03255 10.6189 3.45843 10.6168H7.6251C8.05098 10.6189 8.45876 10.7891 8.75993 11.0902C9.0611 11.3913 9.23126 11.7992 9.23343 12.2251V16.3918C9.23126 16.8176 9.0611 17.2254 8.75993 17.5266C8.45876 17.8277 8.05098 17.9978 7.6251 18.0001ZM3.45843 11.8668C3.3634 11.8668 3.27226 11.9045 3.20506 11.9717C3.13785 12.0388 3.1001 12.13 3.1001 12.2251V16.3918C3.10222 16.4861 3.14066 16.576 3.2074 16.6428C3.27415 16.7095 3.36406 16.7479 3.45843 16.7501H7.6251C7.72013 16.7501 7.81128 16.7123 7.87848 16.6451C7.94568 16.5779 7.98343 16.4868 7.98343 16.3918V12.2251C7.98343 12.13 7.94568 12.0388 7.87848 11.9717C7.81128 11.9045 7.72013 11.8668 7.6251 11.8668H3.45843Z" fill="white"/>
<path d="M16.5416 18.0001H12.3749C11.9491 17.9978 11.5413 17.8277 11.2401 17.5266C10.9389 17.2254 10.7688 16.8176 10.7666 16.3918V12.2251C10.7688 11.7992 10.9389 11.3913 11.2401 11.0902C11.5413 10.7891 11.9491 10.6189 12.3749 10.6168H16.5416C16.9675 10.6189 17.3753 10.7891 17.6764 11.0902C17.9776 11.3913 18.1478 11.7992 18.1499 12.2251V16.3918C18.1478 16.8176 17.9776 17.2254 17.6764 17.5266C17.3753 17.8277 16.9675 17.9978 16.5416 18.0001ZM12.3749 11.8668C12.2799 11.8668 12.1888 11.9045 12.1216 11.9717C12.0544 12.0388 12.0166 12.13 12.0166 12.2251V16.3918C12.0166 16.4868 12.0544 16.5779 12.1216 16.6451C12.1888 16.7123 12.2799 16.7501 12.3749 16.7501H16.5416C16.6367 16.7501 16.7278 16.7123 16.795 16.6451C16.8622 16.5779 16.8999 16.4868 16.8999 16.3918V12.2251C16.8999 12.13 16.8622 12.0388 16.795 11.9717C16.7278 11.9045 16.6367 11.8668 16.5416 11.8668H12.3749Z" fill="white"/>
</svg>
