<svg  viewBox="0 0 24 24" fill="none" xmlns="http://www.w3.org/2000/svg">
<path d="M23.9602 7.49673C23.6099 3.64081 20.8806 0.843266 17.4651 0.843266C15.1895 0.843266 13.106 2.0678 11.9337 4.03037C10.7719 2.04241 8.77378 0.842804 6.53473 0.842804C3.11961 0.842804 0.389913 3.64035 0.0400469 7.49626C0.012353 7.66658 -0.101192 8.56294 0.244059 10.0247C0.741626 12.1331 1.89092 14.0509 3.56687 15.5695L11.9281 23.1572L20.4329 15.57C22.1089 14.051 23.2582 12.1336 23.7557 10.0247C24.101 8.5634 23.9874 7.66704 23.9602 7.49673ZM22.8571 9.81332C22.4029 11.739 21.35 13.4934 19.8153 14.8836L11.9337 21.9156L4.18721 14.8855C2.64974 13.4925 1.59737 11.7385 1.14273 9.81286C0.815938 8.42955 0.950253 7.64812 0.950715 7.64304L0.957638 7.59642C1.25766 4.21823 3.60287 1.76593 6.53473 1.76593C8.69808 1.76593 10.6025 3.09524 11.5062 5.2346L11.9313 6.24219L12.3564 5.2346C13.2459 3.12801 15.2509 1.7664 17.4655 1.7664C20.3969 1.7664 22.7426 4.21869 23.0486 7.64073C23.0495 7.64812 23.1838 8.43001 22.8571 9.81332Z" fill="#242734"/>
</svg>
