<svg viewBox="0 0 16 16" fill="none" xmlns="http://www.w3.org/2000/svg">
<path d="M8.33077 1.22996L10.1118 5.64996L14.6708 6.06096C14.9868 6.08996 15.1158 6.50296 14.8758 6.72096L11.4178 9.86296L12.4538 14.537C12.5258 14.861 12.1898 15.117 11.9178 14.944L7.99977 12.467L4.08177 14.944C3.80977 15.116 3.47477 14.861 3.54677 14.537L4.58277 9.86296L1.12477 6.72096C0.884772 6.50296 1.01177 6.08896 1.32877 6.06096L5.88777 5.64996L7.66877 1.22996C7.69382 1.16237 7.73897 1.10406 7.79814 1.06288C7.85732 1.02171 7.92768 0.999634 7.99977 0.999634C8.07186 0.999634 8.14223 1.02171 8.2014 1.06288C8.26058 1.10406 8.30572 1.16237 8.33077 1.22996Z" fill="#D5D5D5" stroke="#D5D5D5"/>
</svg>
