<svg  viewBox="0 0 21 13" fill="none" xmlns="http://www.w3.org/2000/svg">
<path d="M20.4783 1.14061C20.6241 0.656234 20.4783 0.301025 19.7887 0.301025H17.5043C16.9231 0.301025 16.6575 0.608318 16.5116 0.945818C16.5116 0.945818 15.3502 3.77811 13.7043 5.61457C13.1731 6.14894 12.9304 6.31769 12.6408 6.31769C12.496 6.31769 12.2856 6.14894 12.2856 5.66457V1.14061C12.2856 0.559359 12.1179 0.301025 11.6335 0.301025H8.04391C7.68141 0.301025 7.46266 0.569776 7.46266 0.826026C7.46266 1.37603 8.28558 1.50311 8.36996 3.05311V6.41561C8.36996 7.15207 8.23766 7.28644 7.946 7.28644C7.17204 7.28644 5.2887 4.44373 4.171 1.18957C3.95329 0.557276 3.7335 0.302067 3.15016 0.302067H0.86683C0.213705 0.302067 0.0834961 0.609359 0.0834961 0.946859C0.0834961 1.55311 0.857455 4.55311 3.6887 8.52082C5.5762 11.2302 8.2335 12.6989 10.6543 12.6989C12.1054 12.6989 12.2845 12.3729 12.2845 11.8104V9.76248C12.2845 9.1104 12.4231 8.97915 12.8825 8.97915C13.22 8.97915 13.8012 9.14998 15.1564 10.4552C16.7043 12.0031 16.9606 12.6979 17.8304 12.6979H20.1137C20.7658 12.6979 21.0918 12.3719 20.9043 11.7281C20.6991 11.0875 19.9595 10.1552 18.9783 9.05207C18.445 8.4229 17.6481 7.74582 17.4054 7.40728C17.0668 6.97082 17.1647 6.77811 17.4054 6.39061C17.4064 6.39165 20.1887 2.4729 20.4783 1.14061Z" fill="#7E838C"/>
</svg>
